<svg width="69" height="69" viewBox="0 0 69 69" fill="none" xmlns="http://www.w3.org/2000/svg">
<g clip-path="url(#clip0_38_2)">
<path d="M16.71 28.4C16.707 29.7112 16.9635 31.0101 17.4646 32.2217C17.9658 33.4334 18.7017 34.534 19.63 35.46L32.63 48.41C34.5036 50.2725 37.0381 51.3179 39.68 51.3179C42.3219 51.3179 44.8564 50.2725 46.73 48.41L49.45 45.7C50.6851 44.4701 52.357 43.7796 54.1 43.7796C55.843 43.7796 57.5149 44.4701 58.75 45.7L64.34 51.29C65.5699 52.525 66.2604 54.197 66.2604 55.94C66.2604 57.683 65.5699 59.3549 64.34 60.59L61.62 63.31L61.18 63.72C55.7 68.43 40.18 68.13 20.09 48C7.94 35.88 3.8 26.36 2.46 20.5C0.870004 13.5 2.53 8.71999 4.61 6.57999L7.45 3.73999C8.68888 2.51738 10.3594 1.83188 12.1 1.83188C13.8406 1.83188 15.5111 2.51738 16.75 3.73999L22.35 9.32999C23.5799 10.565 24.2704 12.237 24.2704 13.98C24.2704 15.723 23.5799 17.3949 22.35 18.63L19.63 21.34C18.7017 22.266 17.9658 23.3666 17.4646 24.5782C16.9635 25.7899 16.707 27.0888 16.71 28.4V28.4Z" stroke="#E7E7E7" stroke-width="3.65" stroke-miterlimit="10"/>
</g>
<defs>
<clipPath id="clip0_38_2">
<rect width="68.05" height="68.05" fill="white"/>
</clipPath>
</defs>
</svg>
