<svg width="69" height="69" fill="none" xmlns="http://www.w3.org/2000/svg"><g clip-path="url(#clip0_38_2)"><path d="M16.71 28.4a9.94 9.94 0 002.92 7.06l13 12.95a10 10 0 0014.1 0l2.72-2.71a6.59 6.59 0 019.3 0l5.59 5.59a6.59 6.59 0 010 9.3l-2.72 2.72-.44.41c-5.48 4.71-21 4.41-41.09-15.72C7.94 35.88 3.8 26.36 2.46 20.5c-1.59-7 .07-11.78 2.15-13.92l2.84-2.84a6.62 6.62 0 019.3 0l5.6 5.59a6.59 6.59 0 010 9.3l-2.72 2.71a9.941 9.941 0 00-2.92 7.06v0z" stroke="#E7E7E7" stroke-width="3.65" stroke-miterlimit="10"/></g><defs><clipPath id="clip0_38_2"><path fill="#fff" d="M0 0h68.05v68.05H0z"/></clipPath></defs></svg>