<svg width="77" height="54" fill="none" xmlns="http://www.w3.org/2000/svg"><g clip-path="url(#clip0_38_13)"><path d="M74.94 3.15l-.13-.1a8.54 8.54 0 00-6.47-3H8.58a8.55 8.55 0 00-6.47 3 .859.859 0 00-.11.1 8.59 8.59 0 00-2 5.48v35.82a8.59 8.59 0 008.58 8.6h59.76a8.59 8.59 0 008.58-8.58V8.63a8.53 8.53 0 00-2-5.48h.02zM74 8.63v35.82a5.52 5.52 0 01-.34 1.91L53.42 26.5 73.5 6.42a5.56 5.56 0 01.5 2.21zM8.58 50.05a5.58 5.58 0 01-3.53-1.25l20.56-20.2 7.89 7.9a7 7 0 009.92 0l7.9-7.9 20.56 20.21a5.63 5.63 0 01-3.54 1.24H8.58zM3 44.45V8.63a5.56 5.56 0 01.45-2.21L23.51 26.5 3.3 46.36a5.52 5.52 0 01-.3-1.91zm65.34-41.4a5.56 5.56 0 013.3 1L41.32 34.4a4.06 4.06 0 01-5.72 0L5.29 4.05a5.51 5.51 0 013.29-1h59.76z" fill="#E7E7E7"/></g><defs><clipPath id="clip0_38_13"><path fill="#fff" transform="translate(0 .05)" d="M0 0h76.92v52.98H0z"/></clipPath></defs></svg>