<svg width="64" height="88" viewBox="0 0 64 88" fill="none" xmlns="http://www.w3.org/2000/svg">
<g clip-path="url(#clip0_38_25)">
<path d="M31.77 2C23.8745 2 16.3024 5.13647 10.7194 10.7194C5.13647 16.3024 2 23.8745 2 31.77C2 37.7 4.7 46.88 7.51 51.62L25.76 82.3C26.3822 83.3354 27.2618 84.1922 28.3132 84.787C29.3646 85.3818 30.552 85.6945 31.76 85.6945C32.968 85.6945 34.1554 85.3818 35.2068 84.787C36.2582 84.1922 37.1378 83.3354 37.76 82.3L56 51.62C58.81 46.88 61.51 37.7 61.51 31.77C61.51 23.8797 58.3776 16.3121 52.8012 10.73C47.2247 5.14793 39.6603 2.00795 31.77 2V2ZM31.77 17.44C34.6042 17.44 37.3748 18.2804 39.7313 19.855C42.0879 21.4296 43.9246 23.6677 45.0092 26.2861C46.0938 28.9046 46.3776 31.7859 45.8247 34.5656C45.2717 37.3454 43.9069 39.8988 41.9028 41.9028C39.8988 43.9069 37.3454 45.2717 34.5656 45.8247C31.7859 46.3776 28.9046 46.0938 26.2861 45.0092C23.6677 43.9246 21.4296 42.0879 19.855 39.7313C18.2804 37.3748 17.44 34.6042 17.44 31.77C17.4387 29.8878 17.8084 28.0238 18.5281 26.2846C19.2478 24.5454 20.3033 22.9652 21.6342 21.6342C22.9652 20.3033 24.5454 19.2478 26.2846 18.5281C28.0238 17.8084 29.8878 17.4387 31.77 17.44V17.44Z" stroke="#E7E7E7" stroke-width="4" stroke-miterlimit="10"/>
</g>
<defs>
<clipPath id="clip0_38_25">
<rect width="63.54" height="87.72" fill="white"/>
</clipPath>
</defs>
</svg>
