<svg width="36" height="29" viewBox="0 0 36 29" fill="none" xmlns="http://www.w3.org/2000/svg">
<path d="M0 12.46V11.22C0.12 11.15 0.09 11.02 0.12 10.92C0.284713 10.2858 0.624169 9.7105 1.09973 9.25968C1.5753 8.80887 2.16787 8.50062 2.81 8.37C3.34747 8.30487 3.88862 8.2748 4.43 8.28H5.81H7.68C8 8.28 8.39 8.37 8.62 8.22C8.85 8.07 8.91 7.67 9.03 7.38L10.73 3.31C11.08 2.56 11.41 1.8 11.73 1.03C11.8068 0.796716 11.9374 0.584711 12.111 0.411032C12.2847 0.237354 12.4967 0.106847 12.73 0.0300039C13.0876 0.00142944 13.4432 0.104571 13.73 0.320004C13.9346 0.513572 14.0713 0.767911 14.1199 1.04531C14.1686 1.32271 14.1265 1.60839 14 1.86C13.28 3.53 12.58 5.21 11.86 6.86L11.23 8.3H24.11C24.0386 8.06178 23.9378 7.83336 23.81 7.62C23.36 6.45 22.81 5.3 22.34 4.16C22.2392 3.84817 22.1086 3.54678 21.95 3.26C21.74 2.73 21.51 2.2 21.3 1.67C21.1941 1.38206 21.2025 1.06448 21.3235 0.78253C21.4444 0.500582 21.6688 0.275683 21.9505 0.154053C22.2322 0.0324229 22.5497 0.0233003 22.8379 0.12856C23.1261 0.23382 23.363 0.445466 23.5 0.720004C23.59 0.900004 23.67 1.08 23.75 1.25C23.8481 1.56446 23.9823 1.86648 24.15 2.15C24.6 3.32 25.15 4.47 25.62 5.61C25.7266 5.92117 25.8605 6.22233 26.02 6.51C26.24 7.06 26.48 7.6 26.7 8.15C26.7139 8.19845 26.7449 8.24026 26.7871 8.2678C26.8293 8.29534 26.88 8.30677 26.93 8.3H29.33H30.71C30.94 8.3 31.17 8.3 31.39 8.3C31.9324 8.24414 32.4804 8.30443 32.9977 8.47686C33.515 8.64928 33.9896 8.92989 34.39 9.3L34.94 9.99C35.2599 10.5212 35.4351 11.127 35.4481 11.747C35.4611 12.367 35.3115 12.9796 35.0141 13.5238C34.7167 14.068 34.282 14.5248 33.7532 14.8487C33.2243 15.1726 32.6199 15.3523 32 15.37C31.83 15.37 31.79 15.44 31.78 15.59L31.54 18.41C31.4748 18.8708 31.4347 19.3348 31.42 19.8C31.3743 19.9178 31.3538 20.0438 31.36 20.17C31.26 21.23 31.22 22.31 31.05 23.37C30.843 24.7821 30.1269 26.0698 29.0366 26.9907C27.9462 27.9116 26.5568 28.4022 25.13 28.37H10.38L9.13 28.3C7.96041 28.0676 6.87745 27.5175 6 26.71L5.42 26L5 25.28C4.52602 24.3492 4.26634 23.3242 4.24 22.28C4.2269 21.8839 4.18344 21.4894 4.11 21.1C4.11 20.41 4 19.73 3.96 19.04C3.9298 18.7819 3.98868 18.5212 4.1269 18.3012C4.26512 18.0811 4.47438 17.9149 4.72 17.83C4.87986 17.7718 5.05026 17.7483 5.21989 17.7611C5.38952 17.7738 5.55452 17.8224 5.70393 17.9037C5.85334 17.985 5.98375 18.0972 6.08652 18.2328C6.18928 18.3683 6.26205 18.5242 6.3 18.69L6.42 19.93C6.5 20.83 6.59 21.73 6.66 22.64C6.68824 23.1687 6.84253 23.683 7.11 24.14C7.26222 24.47 7.48799 24.7608 7.77 24.99C8.04961 25.2871 8.39096 25.5192 8.77 25.67C9.70103 25.9906 10.6939 26.0898 11.67 25.96C12.1115 26.0099 12.5563 26.0233 13 26H15.43H17.84C18.2991 26.0398 18.7609 26.0398 19.22 26H21.52H24.06C24.5022 26.045 24.9478 26.045 25.39 26C26.2709 25.9779 27.1104 25.6214 27.7381 25.003C28.3658 24.3845 28.7347 23.5505 28.77 22.67C28.77 22.19 28.85 21.67 28.9 21.22L29.35 15.89C29.4218 15.41 29.4586 14.9254 29.46 14.44C29.7 13.44 29.96 13.13 30.78 13.04C31.2 13.04 31.63 13.04 32.05 13.04C32.2869 13.0298 32.5152 12.9478 32.7045 12.805C32.8938 12.6621 33.0352 12.4651 33.11 12.24C33.1898 12.0129 33.195 11.7663 33.1248 11.5361C33.0547 11.3058 32.9128 11.104 32.72 10.96C32.6392 10.8714 32.5401 10.8014 32.4296 10.7548C32.3191 10.7082 32.1999 10.6861 32.08 10.69H8.08C6.56 10.69 5.08 10.69 3.52 10.69C3.25422 10.7432 3.01485 10.8862 2.8421 11.095C2.66936 11.3039 2.57378 11.5659 2.57144 11.8369C2.56909 12.1079 2.66012 12.3715 2.82922 12.5833C2.99832 12.7951 3.23518 12.9423 3.5 13C4.31 13 5.13 13 5.95 13H26C26.1614 12.9986 26.3215 13.0296 26.4708 13.0911C26.6201 13.1525 26.7556 13.2432 26.8693 13.3579C26.9829 13.4725 27.0725 13.6087 27.1328 13.7585C27.193 13.9083 27.2227 14.0686 27.22 14.23C27.2113 14.3939 27.1695 14.5544 27.0973 14.7019C27.0251 14.8493 26.9239 14.9806 26.7997 15.088C26.6755 15.1954 26.5309 15.2766 26.3746 15.3267C26.2183 15.3769 26.0535 15.395 25.89 15.38C25.07 15.38 24.25 15.38 23.44 15.38H3.44C2.70934 15.3568 2.00355 15.1092 1.41851 14.6708C0.833476 14.2325 0.397563 13.6247 0.17 12.93C0.11 12.77 0.17 12.59 0 12.46Z" fill="#020202"/>
</svg>
