<svg width="36" height="29" fill="none" xmlns="http://www.w3.org/2000/svg"><path d="M0 12.46v-1.24c.12-.07.09-.2.12-.3a3.5 3.5 0 012.69-2.55 12.47 12.47 0 011.62-.09h3.25c.32 0 .71.09.94-.06.23-.15.29-.55.41-.84l1.7-4.07c.35-.75.68-1.51 1-2.28a1.57 1.57 0 011-1 1.47 1.47 0 011 .29A1.31 1.31 0 0114 1.86c-.72 1.67-1.42 3.35-2.14 5l-.63 1.44h12.88a2.999 2.999 0 00-.3-.68c-.45-1.17-1-2.32-1.47-3.46a5.103 5.103 0 00-.39-.9c-.21-.53-.44-1.06-.65-1.59a1.2 1.2 0 012.2-.95c.09.18.17.36.25.53.098.314.232.616.4.9.45 1.17 1 2.32 1.47 3.46.107.311.24.612.4.9.22.55.46 1.09.68 1.64a.21.21 0 00.23.15h4.46a3.84 3.84 0 013 1l.55.69A3.55 3.55 0 0132 15.37c-.17 0-.21.07-.22.22l-.24 2.82c-.065.46-.105.925-.12 1.39a.9.9 0 00-.06.37c-.1 1.06-.14 2.14-.31 3.2a5.85 5.85 0 01-5.92 5H10.38l-1.25-.07A6.49 6.49 0 016 26.71L5.42 26 5 25.28a7 7 0 01-.76-3 7.75 7.75 0 00-.13-1.18c0-.69-.11-1.37-.15-2.06a1.14 1.14 0 01.76-1.21 1.198 1.198 0 011.58.86l.12 1.24c.08.9.17 1.8.24 2.71a3.32 3.32 0 00.45 1.5c.152.33.378.62.66.85.28.297.621.53 1 .68a6.34 6.34 0 002.9.29c.441.05.886.063 1.33.04h4.84c.46.04.92.04 1.38 0h4.84c.442.045.888.045 1.33 0a3.47 3.47 0 003.38-3.33c0-.48.08-1 .13-1.45l.45-5.33c.072-.48.109-.965.11-1.45.24-1 .5-1.31 1.32-1.4h1.27a1.17 1.17 0 001.06-.8 1.13 1.13 0 00-.39-1.28.829.829 0 00-.64-.27H3.52A1.18 1.18 0 003.5 13H26a1.209 1.209 0 011.22 1.23 1.22 1.22 0 01-1.33 1.15H3.44a3.56 3.56 0 01-3.27-2.45c-.06-.16 0-.34-.17-.47z" fill="#020202"/></svg>