<svg width="31" height="22" fill="none" xmlns="http://www.w3.org/2000/svg"><g clip-path="url(#clip0_38_78)"><path d="M30.24 3.38A3.87 3.87 0 0027.52.66C25.1 0 15.44 0 15.44 0S5.77 0 3.36.64A3.91 3.91 0 00.64 3.38 40.56 40.56 0 000 10.81a40.44 40.44 0 00.64 7.43A3.85 3.85 0 003.36 21c2.44.66 12.08.66 12.08.66s9.66 0 12.08-.64a3.85 3.85 0 002.72-2.72 40.68 40.68 0 00.64-7.43 38.945 38.945 0 00-.64-7.45v-.04zM12.36 15.44V6.18l8 4.63-8 4.63z" fill="#BABAB9"/></g><defs><clipPath id="clip0_38_78"><path fill="#fff" d="M0 0h30.88v21.62H0z"/></clipPath></defs></svg>