<svg width="32" height="19" fill="none" xmlns="http://www.w3.org/2000/svg"><g clip-path="url(#clip0_38_74)"><path d="M15.48 18h1.89a1.55 1.55 0 00.86-.38 1.36 1.36 0 00.26-.83s0-2.53 1.14-2.91c1.14-.38 2.65 2.46 4.23 3.54A3 3 0 0026 18h4.19s2.21-.14 1.16-1.87a13.997 13.997 0 00-3.14-3.64c-2.65-2.46-2.29-2.06.9-6.31C31.05 3.56 31.83 2 31.58 1.3c-.25-.7-1.66-.47-1.66-.47h-4.75a1.13 1.13 0 00-.62.1c-.177.135-.321.31-.42.51a27.3 27.3 0 01-1.75 3.71c-2.12 3.6-3 3.79-3.31 3.57-.81-.52-.61-2.09-.61-3.21 0-3.49.53-4.94-1-5.32A8.69 8.69 0 0015.21 0a10.38 10.38 0 00-4 .41c-.54.26-.95.85-.7.89A2.12 2.12 0 0112 2a4.59 4.59 0 01.47 2.16s.28 4.1-.65 4.61c-.64.35-1.52-.37-3.41-3.63a29.92 29.92 0 01-1.7-3.52 1.46 1.46 0 00-.39-.53A2 2 0 005.55.8L1 .83s-.65.02-.9.31S.08 2 .08 2s3.54 8.22 7.55 12.4a10.88 10.88 0 007.85 3.6z" fill="#BABAB9"/></g><defs><clipPath id="clip0_38_74"><path fill="#fff" d="M0 0h31.63v18.05H0z"/></clipPath></defs></svg>