<svg width="30" height="30" viewBox="0 0 30 30" fill="none" xmlns="http://www.w3.org/2000/svg">
<g clip-path="url(#clip0_38_64)">
<path d="M20.92 29.24H8.32C6.11421 29.2374 3.99952 28.3599 2.43979 26.8002C0.880065 25.2405 0.00264642 23.1258 0 20.92L0 8.32C0.00264642 6.11421 0.880065 3.99952 2.43979 2.43979C3.99952 0.880065 6.11421 0.00264642 8.32 0L20.92 0C23.1258 0.00264642 25.2405 0.880065 26.8002 2.43979C28.3599 3.99952 29.2374 6.11421 29.24 8.32V20.92C29.2374 23.1258 28.3599 25.2405 26.8002 26.8002C25.2405 28.3599 23.1258 29.2374 20.92 29.24ZM8.32 2.51C7.55702 2.51 6.80151 2.66028 6.09661 2.95226C5.39171 3.24424 4.75122 3.6722 4.21171 4.21171C3.12212 5.3013 2.51 6.77909 2.51 8.32V20.92C2.51 22.4609 3.12212 23.9387 4.21171 25.0283C4.75122 25.5678 5.39171 25.9958 6.09661 26.2877C6.80151 26.5797 7.55702 26.73 8.32 26.73H20.92C22.4609 26.73 23.9387 26.1179 25.0283 25.0283C26.1179 23.9387 26.73 22.4609 26.73 20.92V8.32C26.73 6.77909 26.1179 5.3013 25.0283 4.21171C23.9387 3.12212 22.4609 2.51 20.92 2.51H8.32Z" fill="#BABAB9"/>
<path d="M14.6199 22.11C13.1385 22.11 11.6904 21.6707 10.4587 20.8477C9.22694 20.0247 8.26693 18.8549 7.70003 17.4863C7.13313 16.1177 6.9848 14.6117 7.2738 13.1588C7.56281 11.7059 8.27616 10.3713 9.32366 9.32377C10.3712 8.27628 11.7057 7.56292 13.1587 7.27392C14.6116 6.98492 16.1176 7.13324 17.4862 7.70014C18.8548 8.26704 20.0246 9.22706 20.8476 10.4588C21.6706 11.6905 22.1099 13.1386 22.1099 14.62C22.1072 16.6057 21.3173 18.5092 19.9132 19.9133C18.5091 21.3174 16.6055 22.1074 14.6199 22.11ZM14.6199 9.64C13.631 9.64 12.6643 9.93325 11.842 10.4827C11.0198 11.0321 10.3789 11.813 10.0005 12.7266C9.62205 13.6402 9.52303 14.6455 9.71596 15.6155C9.90889 16.5854 10.3851 17.4763 11.0844 18.1755C11.7836 18.8748 12.6745 19.351 13.6444 19.5439C14.6143 19.7369 15.6197 19.6378 16.5333 19.2594C17.4469 18.881 18.2278 18.2401 18.7772 17.4179C19.3266 16.5956 19.6199 15.6289 19.6199 14.64C19.6199 13.3139 19.0931 12.0421 18.1554 11.1045C17.2177 10.1668 15.946 9.64 14.6199 9.64Z" fill="#BABAB9"/>
<path d="M24.2299 6.71C24.2299 7.06601 24.1243 7.41402 23.9265 7.71003C23.7287 8.00604 23.4476 8.23675 23.1187 8.37299C22.7898 8.50922 22.4279 8.54487 22.0787 8.47542C21.7296 8.40596 21.4088 8.23453 21.1571 7.9828C20.9054 7.73106 20.7339 7.41033 20.6645 7.06117C20.595 6.712 20.6307 6.35008 20.7669 6.02117C20.9031 5.69227 21.1338 5.41114 21.4299 5.21336C21.7259 5.01557 22.0739 4.91 22.4299 4.91C22.9065 4.91263 23.3628 5.10312 23.6998 5.44011C24.0368 5.77711 24.2273 6.23342 24.2299 6.71Z" fill="#BABAB9"/>
</g>
<defs>
<clipPath id="clip0_38_64">
<rect width="29.24" height="29.24" fill="white"/>
</clipPath>
</defs>
</svg>
