<svg width="30" height="30" fill="none" xmlns="http://www.w3.org/2000/svg"><g clip-path="url(#clip0_38_64)" fill="#BABAB9"><path d="M20.92 29.24H8.32A8.33 8.33 0 010 20.92V8.32A8.33 8.33 0 018.32 0h12.6a8.33 8.33 0 018.32 8.32v12.6a8.33 8.33 0 01-8.32 8.32zM8.32 2.51a5.81 5.81 0 00-5.81 5.81v12.6a5.81 5.81 0 005.81 5.81h12.6a5.81 5.81 0 005.81-5.81V8.32a5.81 5.81 0 00-5.81-5.81H8.32z"/><path d="M14.62 22.11a7.49 7.49 0 117.49-7.49 7.5 7.5 0 01-7.49 7.49zm0-12.47a5 5 0 100 10 5 5 0 000-10zm9.61-2.93a1.8 1.8 0 11-1.8-1.8 1.81 1.81 0 011.8 1.8z"/></g><defs><clipPath id="clip0_38_64"><path fill="#fff" d="M0 0h29.24v29.24H0z"/></clipPath></defs></svg>