<svg width="28" height="24" fill="none" xmlns="http://www.w3.org/2000/svg"><g clip-path="url(#clip0_5_26)" fill="#000"><path d="M1.06 15.91A1.06 1.06 0 010 14.85V8.48a1.06 1.06 0 112.12 0v6.37a1.06 1.06 0 01-1.06 1.06zm4.24 3.18A1.07 1.07 0 014.24 18V5.3a1.06 1.06 0 112.12 0V18a1.06 1.06 0 01-1.06 1.09zm4.24-3.18a1.07 1.07 0 01-1.06-1.06V8.48a1.07 1.07 0 012.13 0v6.37a1.07 1.07 0 01-1.07 1.06zm4.25 4.24a1.06 1.06 0 01-1.06-1.06V4.24a1.06 1.06 0 012.12 0v14.85a1.07 1.07 0 01-1.06 1.06zM18 23.33a1.05 1.05 0 01-1-1.06V1.06a1.06 1.06 0 012.12 0v21.21A1.06 1.06 0 0118 23.33zm4.27-4.24A1.058 1.058 0 0121.21 18V5.3a1.06 1.06 0 012.12 0V18a1.06 1.06 0 01-1.06 1.06m4.24-4.21a1.07 1.07 0 01-1.06-1.06V9.54a1.06 1.06 0 012.12 0v4.25a1.06 1.06 0 01-1.06 1.06z"/></g><defs><clipPath id="clip0_5_26"><path fill="#fff" d="M0 0h27.57v23.33H0z"/></clipPath></defs></svg>