<svg width="28" height="24" viewBox="0 0 28 24" fill="none" xmlns="http://www.w3.org/2000/svg">
<g clip-path="url(#clip0_5_26)">
<path d="M1.06 15.91C0.77887 15.91 0.509255 15.7983 0.310467 15.5995C0.111678 15.4007 0 15.1311 0 14.85V8.48C0 8.19887 0.111678 7.92925 0.310467 7.73046C0.509255 7.53168 0.77887 7.42 1.06 7.42C1.34113 7.42 1.61074 7.53168 1.80953 7.73046C2.00832 7.92925 2.12 8.19887 2.12 8.48V14.85C2.12 15.1311 2.00832 15.4007 1.80953 15.5995C1.61074 15.7983 1.34113 15.91 1.06 15.91Z" fill="black"/>
<path d="M5.3 19.09C5.15863 19.0887 5.01891 19.0594 4.88893 19.0038C4.75895 18.9482 4.64128 18.8674 4.54272 18.766C4.44416 18.6647 4.36666 18.5448 4.3147 18.4133C4.26274 18.2818 4.23735 18.1413 4.23999 18V5.3C4.23999 5.01887 4.35167 4.74925 4.55046 4.55047C4.74925 4.35168 5.01887 4.24 5.3 4.24C5.58112 4.24 5.85074 4.35168 6.04953 4.55047C6.24832 4.74925 6.36 5.01887 6.36 5.3V18C6.36401 18.1417 6.33955 18.2828 6.28808 18.4149C6.23661 18.5469 6.15917 18.6674 6.06034 18.769C5.9615 18.8706 5.84329 18.9514 5.71269 19.0065C5.58209 19.0617 5.44176 19.0901 5.3 19.09Z" fill="black"/>
<path d="M9.54 15.91C9.25967 15.9074 8.99157 15.7949 8.79335 15.5967C8.59512 15.3984 8.4826 15.1303 8.48 14.85V8.48C8.50567 8.21535 8.62896 7.96974 8.82585 7.79103C9.02273 7.61232 9.2791 7.51332 9.545 7.51332C9.81089 7.51332 10.0673 7.61232 10.2641 7.79103C10.461 7.96974 10.5843 8.21535 10.61 8.48V14.85C10.6074 15.132 10.4935 15.4016 10.2931 15.6001C10.0927 15.7987 9.82205 15.91 9.54 15.91Z" fill="black"/>
<path d="M13.79 20.15C13.5089 20.15 13.2393 20.0383 13.0405 19.8395C12.8417 19.6407 12.73 19.3711 12.73 19.09V4.24C12.73 3.95887 12.8417 3.68926 13.0405 3.49047C13.2393 3.29168 13.5089 3.18 13.79 3.18C14.0711 3.18 14.3407 3.29168 14.5395 3.49047C14.7383 3.68926 14.85 3.95887 14.85 4.24V19.09C14.8474 19.3703 14.7349 19.6384 14.5366 19.8367C14.3384 20.0349 14.0703 20.1474 13.79 20.15Z" fill="black"/>
<path d="M18 23.33C17.7285 23.3171 17.4727 23.1994 17.2862 23.0017C17.0997 22.804 16.9971 22.5418 17 22.27V1.06C17 0.77887 17.1117 0.509255 17.3105 0.310467C17.5093 0.111678 17.7789 0 18.06 0C18.3411 0 18.6107 0.111678 18.8095 0.310467C19.0083 0.509255 19.12 0.77887 19.12 1.06V22.27C19.1202 22.4144 19.091 22.5573 19.034 22.69C18.977 22.8227 18.8935 22.9423 18.7886 23.0416C18.6838 23.1408 18.5597 23.2176 18.4241 23.2672C18.2885 23.3168 18.1442 23.3382 18 23.33Z" fill="black"/>
<path d="M22.27 19.09C22.1282 19.0901 21.9879 19.0617 21.8573 19.0065C21.7267 18.9514 21.6085 18.8706 21.5097 18.769C21.4108 18.6674 21.3334 18.5469 21.2819 18.4149C21.2304 18.2828 21.206 18.1417 21.21 18V5.3C21.21 5.01887 21.3217 4.74925 21.5205 4.55047C21.7193 4.35168 21.9889 4.24 22.27 4.24C22.5511 4.24 22.8207 4.35168 23.0195 4.55047C23.2183 4.74925 23.33 5.01887 23.33 5.3V18C23.33 18.2811 23.2183 18.5507 23.0195 18.7495C22.8207 18.9483 22.5511 19.06 22.27 19.06" fill="black"/>
<path d="M26.51 14.85C26.2297 14.8474 25.9616 14.7349 25.7633 14.5366C25.5651 14.3384 25.4526 14.0703 25.45 13.79V9.54C25.45 9.25887 25.5617 8.98925 25.7605 8.79046C25.9593 8.59167 26.2289 8.48 26.51 8.48C26.7911 8.48 27.0607 8.59167 27.2595 8.79046C27.4583 8.98925 27.57 9.25887 27.57 9.54V13.79C27.57 14.0711 27.4583 14.3407 27.2595 14.5395C27.0607 14.7383 26.7911 14.85 26.51 14.85Z" fill="black"/>
</g>
<defs>
<clipPath id="clip0_5_26">
<rect width="27.57" height="23.33" fill="white"/>
</clipPath>
</defs>
</svg>
