<svg width="35" height="49" fill="none" xmlns="http://www.w3.org/2000/svg"><g clip-path="url(#clip0_38_42)"><path d="M17.32 0A17.33 17.33 0 000 17.32a27.47 27.47 0 003.21 11.55l10.62 17.86a4.07 4.07 0 007 0l10.61-17.86a27.468 27.468 0 003.21-11.55A17.33 17.33 0 0017.32 0" fill="#000"/><path d="M9.013 15.62v9.01H6.39V6.269h2.807l3.095 11.436L15.387 6.27h2.807v18.36H15.57v-9.01l-2.44 9.01h-1.678l-2.44-9.01zm15.633 6.387h-2.4l-.354 2.623h-2.649l2.479-18.361h3.45l2.465 18.361H25l-.355-2.623zm-2.045-2.623h1.691l-.852-6.295-.84 6.295z" fill="#fff"/></g><defs><clipPath id="clip0_38_42"><path fill="#fff" d="M0 0h34.65v48.72H0z"/></clipPath></defs></svg>