<svg width="154" height="35" fill="none" xmlns="http://www.w3.org/2000/svg"><path d="M4.883 18.227V35H0V.82h5.225l5.761 21.29L16.748.82h5.225V35H17.09V18.227L12.549 35H9.424L4.883 18.227zM34.18 20.84V35h-4.883V20.84L23.682.82h5.053l3.003 10.694L34.741.82h5.054L34.18 20.84zM56.152 8.145v2.44H51.27v-2.44a2.29 2.29 0 00-.732-1.71 2.29 2.29 0 00-1.709-.732c-.667 0-1.245.244-1.733.733a2.329 2.329 0 00-.708 1.709c0 3.418 1.627 6.347 4.883 8.789 3.255 2.441 4.882 6.022 4.882 10.742 0 2.018-.716 3.743-2.148 5.176C52.572 34.284 50.846 35 48.828 35s-3.743-.716-5.176-2.148c-1.432-1.433-2.148-3.158-2.148-5.176v-2.442h4.883v2.442c0 .667.236 1.245.708 1.733a2.41 2.41 0 001.733.708c.667 0 1.237-.236 1.71-.708.487-.488.732-1.066.732-1.733 0-3.418-1.628-6.348-4.883-8.79-3.255-2.44-4.883-6.021-4.883-10.741 0-2.019.716-3.744 2.148-5.176C45.085 1.536 46.81.82 48.828.82c2.018 0 3.744.716 5.176 2.149 1.432 1.432 2.148 3.157 2.148 5.176zM68.36 5.703V35h-4.882V5.703h-4.883V.82h14.648v4.883H68.36zm21.778 24.414H85.67L85.009 35h-4.93L84.691.82h6.421L95.703 35h-4.907l-.66-4.883zm-3.809-4.883h3.15L87.89 13.516l-1.563 11.718zm11.328 2.442V.82h4.883v26.856c0 .667.236 1.245.708 1.733a2.41 2.41 0 001.733.708c.668 0 1.237-.236 1.709-.708.489-.488.733-1.066.733-1.733V.82h4.883v26.856c0 2.018-.716 3.743-2.149 5.176C108.725 34.284 107 35 104.981 35c-2.018 0-3.743-.716-5.175-2.148-1.433-1.433-2.149-3.158-2.149-5.176zm26.856-19.531c0-.668-.244-1.237-.733-1.71a2.29 2.29 0 00-1.709-.732h-2.441v24.414h2.441c.668 0 1.237-.236 1.709-.708.489-.488.733-1.066.733-1.733V8.145zM122.07.82c2.019 0 3.744.716 5.176 2.149 1.432 1.432 2.149 3.157 2.149 5.176v19.53c0 2.019-.717 3.744-2.149 5.177-1.432 1.432-3.157 2.148-5.176 2.148h-7.324V.82h7.324zM136.719 35h-4.883V.82h4.883V35zm2.441-26.855c0-2.019.716-3.744 2.149-5.176 1.432-1.433 3.157-2.149 5.175-2.149 2.019 0 3.744.716 5.176 2.149 1.432 1.432 2.149 3.157 2.149 5.176v19.53c0 2.019-.717 3.744-2.149 5.177-1.432 1.432-3.157 2.148-5.176 2.148-2.018 0-3.743-.716-5.175-2.148-1.433-1.433-2.149-3.158-2.149-5.176V8.145zm9.766 0c0-.668-.244-1.237-.733-1.71a2.29 2.29 0 00-1.709-.732c-.667 0-1.245.244-1.733.733a2.329 2.329 0 00-.708 1.709v19.53c0 .668.236 1.246.708 1.734a2.41 2.41 0 001.733.708c.668 0 1.237-.236 1.709-.708.489-.488.733-1.066.733-1.733V8.145z" fill="#fff"/></svg>