<svg width="45" height="55" fill="none" xmlns="http://www.w3.org/2000/svg"><g clip-path="url(#clip0_38_36)"><path d="M22.2 0C9.94 0 0 8.62 0 19.26A27.49 27.49 0 004.11 32.1L17.72 52a5.65 5.65 0 009 0L40.3 32.1a27.49 27.49 0 004.11-12.84C44.41 8.62 34.47 0 22.2 0z" fill="#fff"/><path d="M22.18 47.85c0-.06-.06-.09-.1-.12-.59-.59-1.17-1.18-1.77-1.76-.1-.11-.09-.15 0-.25l12.1-12.08a14.64 14.64 0 003.66-6A14.55 14.55 0 0034.14 15 14.42 14.42 0 0026 9.24a14.27 14.27 0 00-5.32-.41A14.56 14.56 0 008.21 19.36a14.14 14.14 0 00-.51 5 14.33 14.33 0 003.61 8.57c.2.23.43.45.64.69a1.37 1.37 0 01.29 1.48A1.34 1.34 0 0111 36a1.38 1.38 0 01-1.16-.45 17.654 17.654 0 01-2-2.36 17.27 17.27 0 01-2.78-6.7 16.91 16.91 0 01-.22-4.71A17.4 17.4 0 0116.6 6.85c1.182-.414 2.406-.7 3.65-.85A17.6 17.6 0 0124 6a17.39 17.39 0 0114.39 11 16.83 16.83 0 011.16 7 17.11 17.11 0 01-5.14 11.66c-4 4.06-8.09 8.1-12.13 12.14l-.07.08-.03-.03z" fill="#D13B34"/><path d="M26 26.71l-1-2.8-2.8 4.62c-.94-1.54-1.86-3.07-2.8-4.62-.33.95-.65 1.87-1 2.8h.86c.13 0 .15 0 .15.15v1.41c0 .1 0 .13-.13.13h-6.44c-.1 0-.13 0-.13-.13v-1.45c0-.09 0-.11.12-.11h1a.21.21 0 00.22-.15 638.86 638.86 0 014.1-10.37c.09-.23.18-.45.28-.72L22.2 22l3.73-6.53c.06 0 .06.09.08.14l4.32 10.93a.19.19 0 00.2.14h1c.1 0 .13 0 .13.12v1.45c0 .11 0 .12-.13.12h-6.42c-.1 0-.13 0-.13-.13v-1.43c0-.11 0-.13.13-.13H26" fill="#D13B34"/></g><defs><clipPath id="clip0_38_36"><path fill="#fff" d="M0 0h44.41v54.17H0z"/></clipPath></defs></svg>