<svg width="33" height="33" viewBox="0 0 33 33" fill="none" xmlns="http://www.w3.org/2000/svg">
<g clip-path="url(#clip0_9_119)">
<path d="M32.73 16.37C32.73 19.6081 31.7697 22.7735 29.9705 25.4657C28.1713 28.158 25.614 30.2562 22.6222 31.4949C19.6304 32.7336 16.3384 33.0572 13.1627 32.4247C9.98695 31.7923 7.07011 30.2322 4.78112 27.9418C2.49214 25.6514 0.933835 22.7336 0.303324 19.5575C-0.327186 16.3814 -0.00157845 13.0896 1.23896 10.0985C2.4795 7.10749 4.57924 4.55154 7.27259 2.75398C9.96594 0.956427 13.1319 -0.00197502 16.37 3.05578e-06C18.5193 2.65427e-06 20.6475 0.423498 22.633 1.24629C24.6185 2.06908 26.4225 3.27504 27.9418 4.79527C29.4611 6.3155 30.666 8.12019 31.4875 10.1062C32.3091 12.0923 32.7313 14.2207 32.73 16.37Z" fill="white"/>
<path d="M20.14 24.87H12.59C11.2639 24.87 9.99214 24.3432 9.05446 23.4055C8.11678 22.4678 7.59 21.196 7.59 19.87V12.34C7.59 11.0139 8.11678 9.74211 9.05446 8.80443C9.99214 7.86675 11.2639 7.33997 12.59 7.33997H20.14C21.4661 7.33997 22.7378 7.86675 23.6755 8.80443C24.6132 9.74211 25.14 11.0139 25.14 12.34V19.89C25.14 20.5466 25.0107 21.1968 24.7594 21.8034C24.5081 22.41 24.1398 22.9612 23.6755 23.4255C23.2112 23.8898 22.66 24.2581 22.0534 24.5094C21.4468 24.7606 20.7966 24.89 20.14 24.89V24.87ZM12.59 8.88997C11.667 8.88997 10.7819 9.25661 10.1293 9.90923C9.47664 10.5619 9.11 11.447 9.11 12.37V19.92C9.11 20.8429 9.47664 21.7281 10.1293 22.3807C10.7819 23.0333 11.667 23.4 12.59 23.4H20.14C21.0629 23.4 21.9481 23.0333 22.6007 22.3807C23.2534 21.7281 23.62 20.8429 23.62 19.92V12.34C23.62 11.883 23.53 11.4304 23.3551 11.0082C23.1802 10.586 22.9239 10.2024 22.6007 9.87923C22.2776 9.55609 21.8939 9.29975 21.4717 9.12486C21.0495 8.94998 20.597 8.85997 20.14 8.85997L12.59 8.88997Z" fill="#232323"/>
<path d="M16.37 20.6C15.4811 20.602 14.6116 20.3401 13.8717 19.8475C13.1318 19.3548 12.5548 18.6537 12.2137 17.8329C11.8726 17.012 11.7829 16.1084 11.9558 15.2365C12.1287 14.3646 12.5565 13.5636 13.1851 12.9351C13.8136 12.3065 14.6146 11.8787 15.4865 11.7058C16.3584 11.5329 17.262 11.6226 18.0829 11.9637C18.9037 12.3048 19.6048 12.8818 20.0975 13.6217C20.5901 14.3616 20.852 15.2311 20.85 16.12C20.8473 17.3073 20.3745 18.4453 19.5349 19.2849C18.6953 20.1245 17.5573 20.5973 16.37 20.6ZM16.37 13.13C15.7766 13.13 15.1966 13.3059 14.7033 13.6356C14.2099 13.9652 13.8254 14.4338 13.5983 14.9819C13.3713 15.5301 13.3119 16.1333 13.4276 16.7153C13.5434 17.2972 13.8291 17.8317 14.2487 18.2513C14.6682 18.6709 15.2028 18.9566 15.7847 19.0723C16.3667 19.1881 16.9699 19.1287 17.518 18.9016C18.0662 18.6746 18.5347 18.29 18.8644 17.7967C19.194 17.3033 19.37 16.7233 19.37 16.13C19.37 15.3343 19.0539 14.5713 18.4913 14.0087C17.9287 13.4461 17.1656 13.13 16.37 13.13Z" fill="#232323"/>
<path d="M22.12 11.38C22.1198 11.5918 22.0574 11.799 21.9404 11.9756C21.8234 12.1523 21.657 12.2906 21.462 12.3734C21.267 12.4562 21.0519 12.4798 20.8436 12.4412C20.6352 12.4027 20.4428 12.3037 20.2903 12.1567C20.1378 12.0096 20.0319 11.8209 19.9858 11.6141C19.9398 11.4073 19.9555 11.1915 20.0312 10.9936C20.1068 10.7957 20.239 10.6245 20.4113 10.5011C20.5835 10.3778 20.7883 10.3078 21 10.3C21.1422 10.2986 21.2832 10.3257 21.4149 10.3795C21.5465 10.4333 21.6661 10.5128 21.7666 10.6133C21.8672 10.7139 21.9467 10.8335 22.0005 10.9651C22.0543 11.0967 22.0813 11.2378 22.08 11.38" fill="#232323"/>
</g>
<defs>
<clipPath id="clip0_9_119">
<rect width="32.73" height="32.73" fill="white"/>
</clipPath>
</defs>
</svg>
