<svg width="33" height="33" fill="none" xmlns="http://www.w3.org/2000/svg"><g clip-path="url(#clip0_9_119)"><path d="M32.73 16.37A16.37 16.37 0 1116.37 0a16.36 16.36 0 0116.36 16.37z" fill="#fff"/><path d="M20.14 24.87h-7.55a5 5 0 01-5-5v-7.53a5 5 0 015-5h7.55a5 5 0 015 5v7.55a5 5 0 01-5 5v-.02zM12.59 8.89a3.48 3.48 0 00-3.48 3.48v7.55a3.48 3.48 0 003.48 3.48h7.55a3.48 3.48 0 003.48-3.48v-7.58a3.48 3.48 0 00-3.48-3.48l-7.55.03z" fill="#232323"/><path d="M16.37 20.6a4.49 4.49 0 11-.02-8.98 4.49 4.49 0 01.02 8.98zm0-7.47a3 3 0 100 5.999 3 3 0 000-5.999zm5.75-1.75A1.08 1.08 0 1121 10.3a1.07 1.07 0 011.08 1.08" fill="#232323"/></g><defs><clipPath id="clip0_9_119"><path fill="#fff" d="M0 0h32.73v32.73H0z"/></clipPath></defs></svg>