<svg width="34" height="33" fill="none" xmlns="http://www.w3.org/2000/svg"><g clip-path="url(#clip0_9_131)"><path d="M33.19 16.37A16.37 16.37 0 1116.83 0a16.36 16.36 0 0116.36 16.37z" fill="#fff"/><path d="M16.09 23.21h1.14a.93.93 0 00.51-.23.85.85 0 00.16-.5s0-1.52.68-1.74c.68-.22 1.59 1.47 2.53 2.12a1.79 1.79 0 001.26.38h2.53s1.33-.09.7-1.13a8.3 8.3 0 00-1.88-2.17c-1.59-1.48-1.37-1.24.54-3.78 1.16-1.56 1.63-2.5 1.48-2.91-.15-.41-1-.28-1-.28H21.9a.67.67 0 00-.37.06.811.811 0 00-.25.31 16.479 16.479 0 01-1.05 2.22c-1.27 2.15-1.78 2.26-2 2.13-.48-.31-.36-1.25-.36-1.92 0-2.09.32-3-.62-3.18a4.363 4.363 0 00-1.33-.13 5.941 5.941 0 00-2.36.24c-.32.16-.57.51-.42.53.321.034.62.183.84.42.196.401.292.844.28 1.29 0 0 .17 2.46-.39 2.76-.38.21-.91-.21-2-2.17a18.222 18.222 0 01-1-2.11.81.81 0 00-.23-.31 1.15 1.15 0 00-.44-.18l-2.74.01s-.4 0-.55.19c-.15.19 0 .48 0 .48s2.11 5 4.52 7.45a6.48 6.48 0 004.69 2.15" fill="#232323"/></g><defs><clipPath id="clip0_9_131"><path fill="#fff" transform="translate(.46)" d="M0 0h32.73v32.73H0z"/></clipPath></defs></svg>