<svg width="33" height="33" viewBox="0 0 33 33" fill="none" xmlns="http://www.w3.org/2000/svg">
<g clip-path="url(#clip0_9_136)">
<path d="M32.9199 16.37C32.9199 19.6081 31.9596 22.7735 30.1604 25.4657C28.3612 28.158 25.804 30.2562 22.8122 31.4949C19.8203 32.7336 16.5284 33.0572 13.3526 32.4247C10.1769 31.7923 7.26005 30.2322 4.97107 27.9418C2.68208 25.6514 1.12378 22.7336 0.493266 19.5575C-0.137245 16.3814 0.188363 13.0896 1.4289 10.0985C2.66944 7.10749 4.76918 4.55154 7.46253 2.75398C10.1559 0.956427 13.3218 -0.00197502 16.5599 3.05578e-06C18.7092 2.65427e-06 20.8374 0.423498 22.823 1.24629C24.8085 2.06908 26.6124 3.27504 28.1317 4.79527C29.651 6.3155 30.8559 8.12019 31.6775 10.1062C32.4991 12.0923 32.9212 14.2207 32.9199 16.37Z" fill="white"/>
<path d="M25.81 12.33C25.7038 11.9415 25.4988 11.5871 25.2149 11.3014C24.931 11.0157 24.5778 10.8085 24.19 10.7C21.7884 10.4036 19.3696 10.27 16.95 10.3C14.5343 10.2713 12.1193 10.3982 9.71996 10.68C9.3301 10.7932 8.97567 11.0042 8.69037 11.293C8.40507 11.5818 8.19838 11.9388 8.08996 12.33C7.82807 13.7987 7.70088 15.2882 7.70996 16.78C7.70054 18.2719 7.82774 19.7614 8.08996 21.23C8.19387 21.6202 8.39954 21.9758 8.68593 22.2604C8.97231 22.545 9.32915 22.7485 9.71996 22.85C12.1182 23.1462 14.5337 23.2798 16.95 23.25C19.3689 23.2786 21.7873 23.1517 24.19 22.87C24.5797 22.763 24.9349 22.5565 25.2207 22.2707C25.5064 21.985 25.713 21.6298 25.82 21.24C26.0785 19.7711 26.2023 18.2815 26.19 16.79C26.2045 15.2947 26.0772 13.8014 25.81 12.33Z" fill="#232323"/>
<path d="M15.0999 19.55L19.9099 16.78L15.0999 14.01V19.55Z" fill="white"/>
</g>
<defs>
<clipPath id="clip0_9_136">
<rect width="32.73" height="32.73" fill="white" transform="translate(0.189941)"/>
</clipPath>
</defs>
</svg>
