<svg width="33" height="33" fill="none" xmlns="http://www.w3.org/2000/svg"><g clip-path="url(#clip0_9_136)"><path d="M32.92 16.37A16.37 16.37 0 1116.56 0a16.36 16.36 0 0116.36 16.37z" fill="#fff"/><path d="M25.81 12.33a2.331 2.331 0 00-1.62-1.63 53.674 53.674 0 00-7.24-.4 56.253 56.253 0 00-7.23.38 2.38 2.38 0 00-1.63 1.65 24.5 24.5 0 00-.38 4.45c-.01 1.492.118 2.981.38 4.45a2.28 2.28 0 001.63 1.62c2.398.296 4.814.43 7.23.4a56.445 56.445 0 007.24-.38 2.33 2.33 0 001.63-1.63 24.51 24.51 0 00.37-4.45 23.677 23.677 0 00-.38-4.46z" fill="#232323"/><path d="M15.1 19.55l4.81-2.77-4.81-2.77v5.54z" fill="#fff"/></g><defs><clipPath id="clip0_9_136"><path fill="#fff" transform="translate(.19)" d="M0 0h32.73v32.73H0z"/></clipPath></defs></svg>