<svg width="33" height="33" viewBox="0 0 33 33" fill="none" xmlns="http://www.w3.org/2000/svg">
<g clip-path="url(#clip0_38_95)">
<path d="M16.0002 2.26613e-06C13.1493 -0.00576794 10.3487 0.750264 7.88807 2.18989C5.42742 3.62951 3.39611 5.70043 2.00426 8.18842C0.61242 10.6764 -0.0893975 13.4911 -0.028585 16.3413C0.0322275 19.1915 0.853461 21.9736 2.35016 24.4L2.79016 25.12L4.23016 24.28L3.79016 23.56C1.97434 20.5797 1.30767 17.0395 1.91511 13.6028C2.52255 10.1662 4.36239 7.06903 7.08984 4.89176C9.81729 2.71449 13.2451 1.60657 16.7309 1.77564C20.2167 1.94471 23.5213 3.37916 26.0252 5.81017C28.5291 8.24117 30.0606 11.5019 30.3326 14.9812C30.6046 18.4604 29.5985 21.9195 27.5027 24.7101C25.407 27.5007 22.3656 29.4313 18.9484 30.14C15.5312 30.8487 11.9728 30.287 8.94016 28.56L8.21016 28.14L7.36016 29.61L8.10016 30C10.2311 31.1788 12.603 31.8555 15.0352 31.9788C17.4673 32.102 19.8955 31.6684 22.1347 30.711C24.3739 29.7537 26.365 28.2978 27.9563 26.4544C29.5476 24.611 30.6971 22.4287 31.3173 20.0737C31.9374 17.7187 32.0118 15.2532 31.5348 12.8652C31.0578 10.4771 30.0419 8.22939 28.5647 6.29338C27.0874 4.35736 25.1877 2.7841 23.0103 1.69348C20.8329 0.602859 18.4353 0.0236543 16.0002 2.26613e-06Z" fill="black"/>
<path d="M16.0003 9.29C15.7224 9.27908 15.4514 9.37779 15.2456 9.56485C15.0399 9.75191 14.9158 10.0123 14.9003 10.29V10.35C14.8963 10.4965 14.9218 10.6423 14.9754 10.7787C15.029 10.9151 15.1096 11.0393 15.2122 11.1438C15.3149 11.2484 15.4376 11.3312 15.5731 11.3872C15.7085 11.4432 15.8538 11.4714 16.0003 11.47C16.2894 11.47 16.5666 11.3552 16.7711 11.1508C16.9755 10.9463 17.0903 10.6691 17.0903 10.38C17.0903 10.0909 16.9755 9.81367 16.7711 9.60926C16.5666 9.40484 16.2894 9.29 16.0003 9.29Z" fill="black"/>
<path d="M16.9399 13.11H15.1699V22.79H16.9399V13.11Z" fill="black"/>
</g>
<defs>
<clipPath id="clip0_38_95">
<rect width="32.01" height="32.09" fill="white"/>
</clipPath>
</defs>
</svg>
